<svg id="Layer_1" data-name="Layer 1" xmlns="http://www.w3.org/2000/svg" viewBox="0 0 308.85 62.86"><defs><style>.cls-1{fill:#fff;}</style></defs><title>csu-online-logo-mobile2</title><path class="cls-1" d="M203.23,30.3a9.78,9.78,0,1,1,19.55,0,9.78,9.78,0,1,1-19.55,0Zm16.11,0c0-4-2.5-6.91-6.34-6.91s-6.34,2.95-6.34,6.91,2.46,6.9,6.33,6.9,6.33-3,6.33-6.9Zm21.14,9.54-10-13.64V39.84h-3.35V20.73h3.44L240.36,34V20.73h3.35V39.84h-3.23Zm8.45,0V20.73h3.35V36.89h8.42v3Zm16,0V20.73h3.35V39.84Zm21.89,0-10-13.64V39.84h-3.36V20.73h3.44L286.65,34V20.73H290V39.84h-3.22Zm8.45,0V20.73h13.09v2.95h-9.74v5h9.54v2.95h-9.54v5.3h9.74v3H295.23ZM184.84,9.61h1V52.24h-1Z"/><path class="cls-1" d="M51.17,29.71C51,28.55,50,28.19,49.11,27.9c-2.61-.82-3.71.2-4.47.28.82-.94.62-2.5-.46-2.68-2-.32-1.47,1.86-1,2.88.32.64.72,1.7,1.72,1.62,1.22-.1,1-1.1,2.8-1.24,0,0,2.2.16,2.16.86-.08,1-1.23,1.42-2,1.68-1.1.36-2.37-.18-3.27.84a1.42,1.42,0,0,0-.41,1.14c.1.38.14.22,1.36.32a5.54,5.54,0,0,0-1.11,3.25c0,3-.8,5.37-.5,6.41,1.46-1.77,1.44-4.43,1.68-6.56a7.71,7.71,0,0,1,1.08-3.13c.62-.94,1.81-1,2.59-1.56s1.9-1.47,1.8-2.33ZM26.76,38.4c.83-1.25,1.69-4,1.19-5.16a5.17,5.17,0,0,1-2.35-1.83c-.58-.84-.92-1.78-1.94-2.06a2.58,2.58,0,0,0-2,.2c-.9.52-1.12,1.76-1.26,2.75a17.4,17.4,0,0,0,1.21,6.9,30.41,30.41,0,0,0,3.23,5.91c-.42-3.46,1.51-5.75,2-6.69Zm-2.64-4.46c-.4-.71-1.43-.57-1.91-.85a1.4,1.4,0,0,1,0-2.25c.95-.87,3.39,1.9,2.85,4.06-.24.08-.36-.06-.92-1Zm10.4,13.74a29.16,29.16,0,0,1-3,.32c-.9,0-2-.22-3-.32a.35.35,0,0,0-.28.1c-.6,1.26,2.81,2,3.3,1.94s3.92-.68,3.33-1.95a.37.37,0,0,0-.28-.1ZM19,25.5c-1.06.18-1.26,1.75-.46,2.68-.74-.08-1.85-1.1-4.45-.28-.91.28-1.93.65-2.07,1.81-.1.86,1.06,1.78,1.8,2.32s2,.62,2.58,1.57a8,8,0,0,1,1.08,3.12c.24,2.13.2,4.79,1.68,6.56.27-1.05-.49-3.39-.5-6.42a5.88,5.88,0,0,0-1.11-3.25c1.22-.1,1.24.07,1.34-.32a1.31,1.31,0,0,0-.4-1.14c-.89-1-2.15-.48-3.27-.84-.74-.26-1.88-.64-1.95-1.69,0-.7,2.16-.87,2.16-.87,1.76.14,1.56,1.14,2.78,1.24,1,.08,1.42-1,1.74-1.62.48-1,1-3.21-1-2.89ZM31.49,36.58h0c-.95,0-1.47.84-2.36,1.77-1.54,1.68-4.71,5.87-2.41,7.85a4.16,4.16,0,0,0,4.21.92c.46-.32.2-1.26,0-1.68-.86-1.12-2.2-.68-2.59-1.24a1,1,0,0,1,.1-1.24c.32-.4.84-.31,1.29-.18a3.48,3.48,0,0,1,1.8,1v0l0,0,0,0v0a3.51,3.51,0,0,1,1.81-1c.42-.12,1-.22,1.27.18a.94.94,0,0,1,.1,1.24c-.38.56-1.7.12-2.56,1.24-.24.42-.52,1.36-.06,1.68a4.17,4.17,0,0,0,4.21-.92c2.33-2-.84-6.18-2.4-7.86-.86-.93-1.4-1.74-2.34-1.76Zm9.7-7a2.55,2.55,0,0,0-2-.2c-1,.28-1.34,1.22-1.95,2.06a5.22,5.22,0,0,1-2.34,1.83c-.5,1.16.37,3.9,1.19,5.17.46.94,2.36,3.22,2,6.69a29.64,29.64,0,0,0,3.21-5.91,16.88,16.88,0,0,0,1.21-6.9c-.12-1-.36-2.22-1.26-2.74Zm-.56,3.55c-.46.28-1.48.14-1.9.84-.56.92-.69,1.05-.93,1-.54-2.17,1.9-4.93,2.84-4.07a1.38,1.38,0,0,1,0,2.24Z"/><path class="cls-1" d="M31.44,3.4a28,28,0,1,0,28,28,28.07,28.07,0,0,0-28-28ZM52.38,48.06A7.4,7.4,0,0,1,49,50.84a3.19,3.19,0,0,1-2.62.08,2.22,2.22,0,0,1-1.24-1.74,5.58,5.58,0,0,1,1-3.33,18.79,18.79,0,0,1,4.45-4.93c2.81-2.09,4.77-2.67,4.05-3.15-.51-.34-3.18,1.12-3.71,1.4-3,1.54-7.13,6-7.62,9.32-.34,2.28,1.92,4,3.85,3.91a25.56,25.56,0,0,1-15.78,5.39h0A25.48,25.48,0,0,1,15.6,52.4c1.93.08,4.19-1.63,3.85-3.91-.49-3.31-4.64-7.78-7.61-9.32-.53-.28-3.2-1.75-3.71-1.41-.73.48,1.23,1.06,4,3.14a18.32,18.32,0,0,1,4.43,4.93,5.4,5.4,0,0,1,1,3.32,2.26,2.26,0,0,1-1.24,1.74,3.26,3.26,0,0,1-2.63-.08A7.51,7.51,0,0,1,10.44,48a27.59,27.59,0,0,1-4.33-8c.75,1.66,5.49,8.62,7.59,8.72s-2.1-5.65-5-8.06A3.85,3.85,0,0,1,7,38.32,1.05,1.05,0,0,1,8,37c1.18,0,4.23,1.54,4.27,1.48C7,28.94,15.13,24.13,11.77,22c-1.18-.74-3.66,0-5,.2,12.49-7.37,14.67,0,18.44,3.37.58.54,3.23,0,3.74-.62.67-.81,2-3.69.48-5.6C27.32,16.75,18.9,9.14,10.93,14.88A23.68,23.68,0,0,1,19.28,8a25.67,25.67,0,0,1,12.15-3h0c7.64-.21,16.18,4,20.45,9.83-8-5.73-16.39,1.87-18.51,4.52-1.5,1.91-.18,4.79.49,5.59.52.62,3.18,1.17,3.76.62,3.77-3.38,6-10.74,18.44-3.36-1.35-.2-3.86-.95-5-.2-3.36,2.08,4.73,6.89-.55,16.41,0,.06,3.1-1.53,4.27-1.49a1,1,0,0,1,1,1.34,4,4,0,0,1-1.68,2.35c-2.93,2.4-7.2,8.17-5.06,8.05S56,41.66,56.7,40a27.7,27.7,0,0,1-4.35,8Z"/><path class="cls-1" d="M90.68,13.75H79c-5.2,0-8.06,2.6-8.06,7.33V41.79c0,4.73,2.86,7.34,8.06,7.34H90.68c5.2,0,8.07-2.6,8.07-7.33V36.3H91v5.17c0,.49-.1,1-1.25,1H79.85c-1,0-1.19-.48-1.19-1V21.41c0-.52.14-1,1.19-1h9.88c1.15,0,1.24.52,1.24,1v5.17h7.76v-5.5c0-4.73-2.87-7.33-8.07-7.33ZM124,28.82l-9.72-1.93c-1.72-.36-1.87-.69-1.87-1.62v-4c0-.51.1-1,1.25-1h9c1,0,1.19.41,1.19,1v4.09h7.66V21.07c0-4.73-2.87-7.34-8.07-7.34H112.71c-5.2,0-8.06,2.6-8.06,7.33v5c0,5.14,3.91,6.64,8.13,7.5l9.73,2c1.69.35,1.87.63,1.87,1.58v4.42c0,.63-.2,1-1.19,1h-9.78c-1,0-1.19-.42-1.19-1.05V37.05h-7.66v4.7c0,4.72,2.87,7.33,8.07,7.33h11.46c5.2,0,8.07-2.61,8.07-7.34V36.3c0-5.42-4.2-6.72-8.13-7.51Zm34.43-15.07V41.46c0,.52-.14,1-1.19,1H146.87c-1.14,0-1.24-.52-1.24-1V13.75h-7.77v28c0,4.73,2.87,7.33,8.07,7.33h12.19c5.21,0,8.07-2.6,8.07-7.33v-28h-7.77Z"/></svg>